<mxfile host="Electron" modified="2023-11-18T04:50:54.848Z" agent="Mozilla/5.0 (Windows NT 10.0; Win64; x64) AppleWebKit/537.36 (KHTML, like Gecko) draw.io/22.1.2 Chrome/114.0.5735.289 Electron/25.9.4 Safari/537.36" etag="pwhGx3A8qLSbci9YNhsH" version="22.1.2" type="device">
  <diagram name="Page-1" id="rC6BILEOwZ42T-YBdo-l">
    <mxGraphModel dx="2537" dy="2093" grid="1" gridSize="10" guides="1" tooltips="1" connect="1" arrows="1" fold="1" page="1" pageScale="1" pageWidth="850" pageHeight="1100" math="0" shadow="0">
      <root>
        <mxCell id="0" />
        <mxCell id="1" parent="0" />
        <mxCell id="rPtWgjlYjDWy5JRF9Zvf-4" value="&lt;div&gt;-TIMELINE-&lt;/div&gt;&lt;div&gt;The history of Living Constellations can be divided into four major sections; the Cold War, the Martian Hegemony, the Springtime of Worlds, and the ongoing supremacy of the Entente.&lt;/div&gt;&lt;div&gt;The timeline deviates from our own in the 1960s with the failure to resolve the Cuban Missile Crisis. The United States, unwilling to commit to an invasion of the island, instead doubled down on missile deployments in Italy and Turkey, to which the Soviet Union responded with even more missiles in Cuba and the initiation of proxy wars in Central America.&lt;/div&gt;&lt;div&gt;Having appeased the hardliners by refusing to back down, Khrushchev withstood Brezhnev&#39;s coup, and in turn was able to implement his planned economic and political reforms. Rather than sliding into economic stagnation and technological irrelevance, the Soviets maintained their head start, culminating in the landing of cosmonaut Alexei Leonov on the moon in 1968; a full year before the Apollo program achieved the same.&lt;/div&gt;&lt;div&gt;Thus, the finish line was moved. The United States committed to the creation of a permanent wheel-type space station, which naturally the Soviets felt the need to counter with one of their own. The lunar surface became home to militarized bases and industry, low earth orbit was saturated with orbital weapons platforms, and it seemed as if the entire solar system was going to be split into &#39;east&#39; and west&#39;.&lt;/div&gt;&lt;div&gt;The warming of Chinese-US relations forced the Soviet&#39;s hand, and negotiations led to a 1978 agreement on the joint colonization of Mars; an attempted first step at detente. The &#39;best and brightest&#39; were selected from the whole of NATO and the Warsaw Pact, or in less flowery words, both sides sent soldiers and scientists whose loyalties could be expected to withstand the stress of a one-way trip. Parades were held, speeches about peace and cooperation given, and for a brief decade it seemed as if the cold war was winding down to an end.&lt;/div&gt;&lt;div&gt;&lt;div&gt;1993 proved the feeling hollow. A global economic recession led to civil unrest. Army officers took control of the Soviet government, hardliner conservatives swept US elections, and the rest of the world watched in horror as negotiations broke down. Finally something snapped, and atomic fire rained from the heavens, and winter engulfed the Earth.&lt;/div&gt;&lt;div&gt;The war lasted hours, but that was all that was needed. North America, Europe, and the Soviet Union had been reduced to ash. China had lost more than half of its population. Famine and radioactive dust brought the remaining nations to their knees. New wars sparked out of desperation, only for riots and mass desertion to bring them grinding to a halt. The only remaining ideology was survival.&lt;/div&gt;&lt;div&gt;In 2001 a sample retrieval pod crashed in China. Inside were seeds for genetically modified crops hardened against radiation and an offer; send replacement parts, mining equipment, and manpower, and Mars would continue to supply Earth with modified seeds from its greenhouses. Earth took the deal, and thus began the Martian Hegemony.&lt;/div&gt;&lt;div&gt;It seemed like a fair trade at first; those on Mars insisted on proven, hardened technology and shared the knowledge necessary to produce it, and those on Earth went to bed with full stomachs. Yet, season after season, the crops failed to produce seeds, and as the Earth became reliant on imports Mar&#39;s excuses finally wore thin. It had been a trap, the plants were sterile; without Mars the Earth would starve.&lt;/div&gt;&lt;div&gt;Human technology stagnated under the auspices of familiarity, reliability, and scarcity; the computers that operated the first faster-than-light gateway in 2118 were no better than those that had existed in the 1980s, and the ships that were sent to terraform the new frontier operated on nuclear engines that had been conceptualized in the 1970s. Martian authority spread over hundreds of new worlds, and the red planet was carved into the bureaucratic and technological heart of an empire.&lt;/div&gt;&lt;/div&gt;&lt;div&gt;&lt;div&gt;Yet, they had sewn the seeds of their own failure. The frontier was too vast to pull the same trick twice, and as the first worlds industrialized they challenged Martian rule.&amp;nbsp; Beginning in February of 2328, the Springtime of Worlds shattered Martian control through eight years of bitter fighting, until finally the Treaty of Enceladus in 2336 decreed that all liberated territory had he right of self-determination. Mars had been reduced to four star systems. The hegemony was over, and in its absence came twenty years of colonial and corporate expansion, piracy, and war.&lt;/div&gt;&lt;div&gt;And so we enter the modern era; the founding of the Entente in 2357 brought standardized rights and regulation to most of human space, and the era of a &#39;wild&#39; frontier has slowly begun to fade from living memory. It is in this uncertain sort of stability that governments and corporations claw for legitimate power, and colonists of every culture, faith, and creed seek their fortunes and freedom along the frontier. Opportunity abounds.&lt;/div&gt;&lt;/div&gt;" style="rounded=0;whiteSpace=wrap;html=1;fontFamily=Lucida Console;dashed=1;strokeWidth=2;" vertex="1" parent="1">
          <mxGeometry x="-770" y="5" width="620" height="1030" as="geometry" />
        </mxCell>
        <mxCell id="rPtWgjlYjDWy5JRF9Zvf-35" value="&lt;font style=&quot;&quot;&gt;&lt;h2 style=&quot;text-align: justify; border-color: var(--border-color);&quot;&gt;&lt;font style=&quot;font-size: 18px;&quot;&gt;- The Cold War -&lt;/font&gt;&lt;/h2&gt;&lt;/font&gt;" style="rounded=0;whiteSpace=wrap;html=1;fontFamily=Lucida Console;dashed=1;strokeWidth=2;horizontal=0;verticalAlign=top;align=center;labelPosition=center;verticalLabelPosition=middle;spacingTop=0;spacing=-15;" vertex="1" parent="1">
          <mxGeometry x="10" y="160" width="30" height="330" as="geometry" />
        </mxCell>
        <mxCell id="rPtWgjlYjDWy5JRF9Zvf-41" value="" style="endArrow=none;dashed=1;html=1;dashPattern=1 3;strokeWidth=5;rounded=0;movable=0;resizable=0;rotatable=0;deletable=0;editable=0;locked=1;connectable=0;" edge="1" parent="1">
          <mxGeometry width="50" height="50" relative="1" as="geometry">
            <mxPoint x="420" y="1100" as="sourcePoint" />
            <mxPoint x="420" as="targetPoint" />
          </mxGeometry>
        </mxCell>
        <mxCell id="rPtWgjlYjDWy5JRF9Zvf-44" style="edgeStyle=orthogonalEdgeStyle;rounded=0;orthogonalLoop=1;jettySize=auto;html=1;entryX=1;entryY=0.5;entryDx=0;entryDy=0;endArrow=none;endFill=0;strokeWidth=2;" edge="1" parent="1" source="rPtWgjlYjDWy5JRF9Zvf-42" target="rPtWgjlYjDWy5JRF9Zvf-40">
          <mxGeometry relative="1" as="geometry" />
        </mxCell>
        <mxCell id="rPtWgjlYjDWy5JRF9Zvf-42" value="&lt;font style=&quot;font-size: 10px;&quot;&gt;&lt;div style=&quot;text-align: justify; border-color: var(--border-color); font-size: 10px;&quot;&gt;&lt;div style=&quot;border-color: var(--border-color); font-size: 10px;&quot;&gt;Khrushchev withstands Brezhnev&#39;s coup and the USSR continues its economic reforms&lt;/div&gt;&lt;/div&gt;&lt;/font&gt;" style="rounded=0;whiteSpace=wrap;html=1;fontFamily=Lucida Console;dashed=1;strokeWidth=2;horizontal=1;verticalAlign=top;align=center;labelPosition=center;verticalLabelPosition=middle;spacingTop=0;spacing=15;fontSize=10;" vertex="1" parent="1">
          <mxGeometry x="520" y="305" width="230" height="70" as="geometry" />
        </mxCell>
        <mxCell id="rPtWgjlYjDWy5JRF9Zvf-8" value="&lt;font style=&quot;font-size: 18px;&quot;&gt;1960&lt;br&gt;Timeline Diverges&lt;br&gt;&lt;/font&gt;" style="rounded=0;whiteSpace=wrap;html=1;fontFamily=Lucida Console;dashed=1;strokeWidth=2;" vertex="1" parent="1">
          <mxGeometry x="320" y="140" width="200" height="70" as="geometry" />
        </mxCell>
        <mxCell id="rPtWgjlYjDWy5JRF9Zvf-9" value="&lt;font style=&quot;font-size: 18px;&quot;&gt;1968&lt;br&gt;&lt;/font&gt;" style="rounded=0;whiteSpace=wrap;html=1;fontFamily=Lucida Console;dashed=1;strokeWidth=2;" vertex="1" parent="1">
          <mxGeometry x="360" y="400" width="120" height="40" as="geometry" />
        </mxCell>
        <mxCell id="rPtWgjlYjDWy5JRF9Zvf-16" value="&lt;font style=&quot;font-size: 18px;&quot;&gt;2336&lt;/font&gt;" style="rounded=0;whiteSpace=wrap;html=1;fontFamily=Lucida Console;dashed=1;strokeWidth=2;" vertex="1" parent="1">
          <mxGeometry x="363.75" y="990" width="122.5" height="40" as="geometry" />
        </mxCell>
        <mxCell id="rPtWgjlYjDWy5JRF9Zvf-15" value="&lt;font style=&quot;font-size: 18px;&quot;&gt;2357&lt;/font&gt;" style="rounded=0;whiteSpace=wrap;html=1;fontFamily=Lucida Console;dashed=1;strokeWidth=2;" vertex="1" parent="1">
          <mxGeometry x="369.37" y="1050" width="121.25" height="40" as="geometry" />
        </mxCell>
        <mxCell id="rPtWgjlYjDWy5JRF9Zvf-13" value="&lt;font style=&quot;font-size: 18px;&quot;&gt;2118&lt;/font&gt;" style="rounded=0;whiteSpace=wrap;html=1;fontFamily=Lucida Console;dashed=1;strokeWidth=2;" vertex="1" parent="1">
          <mxGeometry x="371.87" y="790" width="120" height="40" as="geometry" />
        </mxCell>
        <mxCell id="rPtWgjlYjDWy5JRF9Zvf-11" value="&lt;font style=&quot;font-size: 18px;&quot;&gt;2001&lt;/font&gt;" style="rounded=0;whiteSpace=wrap;html=1;fontFamily=Lucida Console;dashed=1;strokeWidth=2;" vertex="1" parent="1">
          <mxGeometry x="371.87" y="710" width="120" height="40" as="geometry" />
        </mxCell>
        <mxCell id="rPtWgjlYjDWy5JRF9Zvf-12" value="&lt;font style=&quot;font-size: 18px;&quot;&gt;1993&lt;/font&gt;" style="rounded=0;whiteSpace=wrap;html=1;fontFamily=Lucida Console;dashed=1;strokeWidth=2;" vertex="1" parent="1">
          <mxGeometry x="360" y="650" width="120" height="40" as="geometry" />
        </mxCell>
        <mxCell id="rPtWgjlYjDWy5JRF9Zvf-14" value="&lt;span style=&quot;font-size: 18px;&quot;&gt;2328&lt;/span&gt;" style="rounded=0;whiteSpace=wrap;html=1;fontFamily=Lucida Console;dashed=1;strokeWidth=2;" vertex="1" parent="1">
          <mxGeometry x="369.37" y="870" width="122.5" height="40" as="geometry" />
        </mxCell>
        <mxCell id="rPtWgjlYjDWy5JRF9Zvf-10" value="&lt;font style=&quot;font-size: 18px;&quot;&gt;1970&lt;/font&gt;" style="rounded=0;whiteSpace=wrap;html=1;fontFamily=Lucida Console;dashed=1;strokeWidth=2;" vertex="1" parent="1">
          <mxGeometry x="360" y="480" width="120" height="40" as="geometry" />
        </mxCell>
        <mxCell id="rPtWgjlYjDWy5JRF9Zvf-38" style="edgeStyle=orthogonalEdgeStyle;rounded=0;orthogonalLoop=1;jettySize=auto;html=1;entryX=0;entryY=0.5;entryDx=0;entryDy=0;endArrow=none;endFill=0;strokeWidth=2;" edge="1" parent="1" source="rPtWgjlYjDWy5JRF9Zvf-34" target="rPtWgjlYjDWy5JRF9Zvf-37">
          <mxGeometry relative="1" as="geometry" />
        </mxCell>
        <mxCell id="rPtWgjlYjDWy5JRF9Zvf-34" value="&lt;font style=&quot;font-size: 10px;&quot;&gt;&lt;div style=&quot;text-align: justify; border-color: var(--border-color); font-size: 10px;&quot;&gt;&lt;div style=&quot;border-color: var(--border-color); font-size: 10px;&quot;&gt;The Cuban Missile Crissis, remaining unresolved, leads to a stalemate; missiles remain in Turkey and Cuba&lt;/div&gt;&lt;/div&gt;&lt;/font&gt;" style="rounded=0;whiteSpace=wrap;html=1;fontFamily=Lucida Console;dashed=1;strokeWidth=2;horizontal=1;verticalAlign=top;align=center;labelPosition=center;verticalLabelPosition=middle;spacingTop=0;spacing=15;fontSize=10;" vertex="1" parent="1">
          <mxGeometry x="70" y="225" width="250" height="70" as="geometry" />
        </mxCell>
        <mxCell id="rPtWgjlYjDWy5JRF9Zvf-37" value="&lt;font style=&quot;font-size: 18px;&quot;&gt;1962&lt;br&gt;&lt;/font&gt;" style="rounded=0;whiteSpace=wrap;html=1;fontFamily=Lucida Console;dashed=1;strokeWidth=2;" vertex="1" parent="1">
          <mxGeometry x="360" y="240" width="120" height="40" as="geometry" />
        </mxCell>
        <mxCell id="rPtWgjlYjDWy5JRF9Zvf-40" value="&lt;font style=&quot;font-size: 18px;&quot;&gt;1964&lt;br&gt;&lt;/font&gt;" style="rounded=0;whiteSpace=wrap;html=1;fontFamily=Lucida Console;dashed=1;strokeWidth=2;" vertex="1" parent="1">
          <mxGeometry x="360" y="320" width="120" height="40" as="geometry" />
        </mxCell>
        <mxCell id="rPtWgjlYjDWy5JRF9Zvf-26" value="&lt;font style=&quot;&quot;&gt;&lt;div style=&quot;border-color: var(--border-color); line-height: 130%;&quot;&gt;&lt;b style=&quot;&quot;&gt;&lt;font style=&quot;font-size: 19px;&quot;&gt;- TIMELINE -&lt;/font&gt;&lt;/b&gt;&lt;/div&gt;&lt;div style=&quot;font-size: 12px; text-align: justify; border-color: var(--border-color); line-height: 130%;&quot;&gt;&lt;br&gt;&lt;/div&gt;&lt;div style=&quot;font-size: 12px; text-align: justify; border-color: var(--border-color); line-height: 130%;&quot;&gt;The history of Living Constellations deviates from our own starting in 1962. From that point, it can be divided into four major sections; the Cold War, the Martian Hegemony, the Springtime of Worlds, and the ongoing era of the Entente.&amp;nbsp;&lt;/div&gt;&lt;/font&gt;" style="rounded=0;whiteSpace=wrap;html=1;fontFamily=Lucida Console;dashed=1;strokeWidth=2;horizontal=1;verticalAlign=top;align=center;labelPosition=center;verticalLabelPosition=middle;spacingTop=0;spacing=15;" vertex="1" parent="1">
          <mxGeometry x="10" y="10" width="830" height="110" as="geometry" />
        </mxCell>
        <mxCell id="rPtWgjlYjDWy5JRF9Zvf-46" style="edgeStyle=orthogonalEdgeStyle;rounded=0;orthogonalLoop=1;jettySize=auto;html=1;entryX=0;entryY=0.5;entryDx=0;entryDy=0;endArrow=none;endFill=0;strokeWidth=2;" edge="1" parent="1" source="rPtWgjlYjDWy5JRF9Zvf-45" target="rPtWgjlYjDWy5JRF9Zvf-9">
          <mxGeometry relative="1" as="geometry" />
        </mxCell>
        <mxCell id="rPtWgjlYjDWy5JRF9Zvf-45" value="&lt;font style=&quot;font-size: 10px;&quot;&gt;&lt;div style=&quot;text-align: justify; border-color: var(--border-color); font-size: 10px;&quot;&gt;&lt;div style=&quot;border-color: var(--border-color); font-size: 10px;&quot;&gt;Rather than Neil Armstrong, it is Alexi Leonov who first sets foot on the moon; the Space Race continues.&lt;/div&gt;&lt;/div&gt;&lt;/font&gt;" style="rounded=0;whiteSpace=wrap;html=1;fontFamily=Lucida Console;dashed=1;strokeWidth=2;horizontal=1;verticalAlign=top;align=center;labelPosition=center;verticalLabelPosition=middle;spacingTop=0;spacing=15;fontSize=10;" vertex="1" parent="1">
          <mxGeometry x="70" y="385" width="250" height="70" as="geometry" />
        </mxCell>
        <mxCell id="rPtWgjlYjDWy5JRF9Zvf-47" value="&lt;font style=&quot;font-size: 18px;&quot;&gt;1978&lt;/font&gt;" style="rounded=0;whiteSpace=wrap;html=1;fontFamily=Lucida Console;dashed=1;strokeWidth=2;" vertex="1" parent="1">
          <mxGeometry x="360" y="560" width="120" height="40" as="geometry" />
        </mxCell>
      </root>
    </mxGraphModel>
  </diagram>
</mxfile>
